<svg
      xmlns="http://www.w3.org/2000/svg"
      viewBox="0 0 109.87 42.52"
      width=120
      fill='#418fde'
    >
      <path
        className="cls-1"
        d="M25.11,24.09a1.41,1.41,0,0,0-1.39,1.16,21.34,21.34,0,0,1-7.08,12.18A2.83,2.83,0,1,1,13,33.12a15.59,15.59,0,0,0,1.73-22A15,15,0,0,0,13,9.4h0a2.83,2.83,0,1,1,3.68-4.31,21.34,21.34,0,0,1,7.08,12.18,1.41,1.41,0,0,0,1.39,1.16h1.44A1.43,1.43,0,0,0,28,17a2,2,0,0,0,0-.25A25.44,25.44,0,0,0,22.22,4.68h0A2.84,2.84,0,1,1,26.53,1a31.19,31.19,0,0,1,0,40.54,2.84,2.84,0,1,1-4.31-3.69A25.44,25.44,0,0,0,28,25.76a1.42,1.42,0,0,0-1.15-1.64,1.07,1.07,0,0,0-.25,0Z"
      />

      <path
        className="cls-1"
        d="M0,29.76v-17A2.84,2.84,0,0,1,2.83,9.92a11.34,11.34,0,0,1,0,22.68A2.84,2.84,0,0,1,0,29.76Z"
      />

      <path
        className="cls-1"
        d="M44.65,19.13V8.5h3.91c.27,0,.52,0,.77.05a4,4,0,0,1,2.13.9,4.54,4.54,0,0,1,1.33,1.87,6.72,6.72,0,0,1,.45,2.49,6.72,6.72,0,0,1-.45,2.49,4.61,4.61,0,0,1-1.33,1.87,3.94,3.94,0,0,1-2.13.89c-.25,0-.5.05-.76.06H44.65Zm1.8-1.67H48l.57,0a5,5,0,0,0,.61-.06,2.14,2.14,0,0,0,1.22-.67,3.33,3.33,0,0,0,.7-1.3,5.56,5.56,0,0,0,.23-1.59,5.73,5.73,0,0,0-.23-1.63,3.28,3.28,0,0,0-.71-1.27,2.1,2.1,0,0,0-1.21-.66,3.53,3.53,0,0,0-.61-.07H46.45Z"
      />
      <path
        className="cls-1"
        d="M55.36,19.13V8.5h6.86v1.67H57.14v2.62h4.2v1.67h-4.2v3h5.08v1.66Z"
      />
      <path
        className="cls-1"
        d="M64.36,19.13V8.5h6.87v1.67H66.14v2.62h4.2v1.67h-4.2v3h5.09v1.66Z"
      />
      <path
        className="cls-1"
        d="M73.37,19.13V8.5h4.79l.45.05a3.18,3.18,0,0,1,1.52.62,2.8,2.8,0,0,1,.9,1.19,4.3,4.3,0,0,1,.29,1.6,4.09,4.09,0,0,1-.3,1.59,2.84,2.84,0,0,1-.89,1.19,3.21,3.21,0,0,1-1.52.61l-.45.05h-3v3.71Zm1.78-5.37h2.54l.33,0a1.21,1.21,0,0,0,.34-.05,1.42,1.42,0,0,0,.7-.4,1.53,1.53,0,0,0,.36-.63,2.25,2.25,0,0,0,0-1.39,1.63,1.63,0,0,0-.36-.64,1.34,1.34,0,0,0-.7-.39,1.72,1.72,0,0,0-.34-.06H75.15Z"
      />
      <path
        className="cls-1"
        d="M44.65,34V23.39h1.77v4.47h5V23.39h1.77V34H51.46V29.53h-5V34Z"
      />
      <path
        className="cls-1"
        d="M55.67,34V23.39h6.86v1.66H57.45v2.62h4.2v1.67h-4.2v3h5.08V34Z"
      />
      <path
        className="cls-1"
        d="M63.94,34l3.35-10.63h2.6L73.24,34H71.41l-3-9.54h.4l-3,9.54Zm1.86-2.31V30.05h5.58v1.66Z"
      />
      <path
        className="cls-1"
        d="M74.94,34V23.39h4.79a2.89,2.89,0,0,1,.45,0,3.22,3.22,0,0,1,1.53.62,2.78,2.78,0,0,1,.89,1.19,4.11,4.11,0,0,1,.29,1.6,3.83,3.83,0,0,1-.65,2.23,2.93,2.93,0,0,1-2,1.16l-.76.06H76.72V34Zm1.78-5.38h2.87a1.59,1.59,0,0,0,.34-.06,1.44,1.44,0,0,0,.7-.39,1.63,1.63,0,0,0,.36-.64,2.42,2.42,0,0,0,.11-.69,2.49,2.49,0,0,0-.11-.7,1.63,1.63,0,0,0-.36-.64,1.3,1.3,0,0,0-.7-.39,1.59,1.59,0,0,0-.34-.06H76.72ZM81.05,34,79,29.69l1.81-.4L83.06,34Z"
      />
      <path className="cls-1" d="M85.2,34V23.39H87V34Z" />
      <path
        className="cls-1"
        d="M89.57,34V23.39h1.8l4.93,7.49V23.39h1.8V34H96.3l-4.93-7.5V34Z"
      />
      <path
        className="cls-1"
        d="M104.92,34.24a5,5,0,0,1-1.94-.37,4.47,4.47,0,0,1-1.58-1.07,4.92,4.92,0,0,1-1.07-1.74A6.64,6.64,0,0,1,100,28.7a6.27,6.27,0,0,1,.65-3,4.67,4.67,0,0,1,1.78-1.9,4.93,4.93,0,0,1,2.54-.66,4.84,4.84,0,0,1,3.11.92,4.49,4.49,0,0,1,1.56,2.55l-1.82.29a3.13,3.13,0,0,0-1-1.51,2.7,2.7,0,0,0-1.75-.56,3,3,0,0,0-1.78.46,2.94,2.94,0,0,0-1.06,1.35,5.31,5.31,0,0,0-.36,2,5.46,5.46,0,0,0,.35,2,3,3,0,0,0,1.07,1.34,3.19,3.19,0,0,0,1.78.49,3,3,0,0,0,1.41-.29,2.34,2.34,0,0,0,1-.91,3.79,3.79,0,0,0,.52-1.52h-1.88v-1.4h3.77a2.87,2.87,0,0,1,0,.35c0,.15,0,.24,0,.27a5.78,5.78,0,0,1-.6,2.68,4.35,4.35,0,0,1-1.7,1.83A5,5,0,0,1,104.92,34.24Z"
      />
    </svg>